<?xml version="1.0" encoding="UTF-8"?>
<svg width="128" height="128" viewBox="0 0 128 128" xmlns="http://www.w3.org/2000/svg">
  <defs>
    <linearGradient id="chatGradient" x1="0%" y1="0%" x2="100%" y2="100%">
      <stop offset="0%" stop-color="#8A2BE2" />
      <stop offset="100%" stop-color="#9370DB" />
    </linearGradient>
  </defs>
  
  <!-- 对话气泡 -->
  <path d="M100,50 C100,36 84,24 64,24 C44,24 28,36 28,50 C28,64 44,76 64,76 C68,76 72,75.5 76,74.5 L92,88 L88,74 C95,70 100,60 100,50 Z" 
        fill="url(#chatGradient)" stroke="none" />
  
  <!-- 电路板元素 -->
  <path d="M40,50 L50,50 M60,50 L70,50 M80,50 L90,50" 
        stroke="#FFFFFF" stroke-width="1.5" stroke-linecap="round" />
  <path d="M50,40 L50,60 M70,40 L70,60" 
        stroke="#FFFFFF" stroke-width="1.5" stroke-linecap="round" />
  
  <!-- 芯片图案 -->
  <rect x="54" y="44" width="20" height="12" rx="2" ry="2" fill="#FFFFFF" opacity="0.7" />
  <line x1="58" y1="44" x2="58" y2="56" stroke="#9370DB" stroke-width="1" />
  <line x1="62" y1="44" x2="62" y2="56" stroke="#9370DB" stroke-width="1" />
  <line x1="66" y1="44" x2="66" y2="56" stroke="#9370DB" stroke-width="1" />
  <line x1="70" y1="44" x2="70" y2="56" stroke="#9370DB" stroke-width="1" />
  <line x1="54" y1="48" x2="74" y2="48" stroke="#9370DB" stroke-width="1" />
  <line x1="54" y1="52" x2="74" y2="52" stroke="#9370DB" stroke-width="1" />
  
  <!-- AI文字 -->
  <text x="64" y="64" font-family="Arial, sans-serif" font-size="12" font-weight="bold" 
        text-anchor="middle" fill="#FFFFFF">AI</text>
</svg> 